HIERARCHY
ROOT mixamorig:Hips
{
	OFFSET -0.000008 104.274872 1.554316
	CHANNELS 6 Xposition Yposition Zposition Xrotation Yrotation Zrotation
	JOINT mixamorig:Spine
	{
		OFFSET -0.000005 10.181595 0.131519
		CHANNELS 6 Xposition Yposition Zposition Xrotation Yrotation Zrotation
		JOINT mixamorig:Spine1
		{
			OFFSET -0.000000 9.893959 -1.470707
			CHANNELS 6 Xposition Yposition Zposition Xrotation Yrotation Zrotation
			JOINT mixamorig:Spine2
			{
				OFFSET -0.000000 9.220757 -1.370641
				CHANNELS 6 Xposition Yposition Zposition Xrotation Yrotation Zrotation
				JOINT mixamorig:Neck
				{
					OFFSET 0.000001 16.740417 -2.049036
					CHANNELS 6 Xposition Yposition Zposition Xrotation Yrotation Zrotation
					JOINT mixamorig:Head
					{
						OFFSET 0.000000 9.617874 1.685006
						CHANNELS 6 Xposition Yposition Zposition Xrotation Yrotation Zrotation
						JOINT mixamorig:HeadTop_End
						{
							OFFSET 0.000002 22.037354 7.501101
							CHANNELS 6 Xposition Yposition Zposition Xrotation Yrotation Zrotation
							End Site
							{
								OFFSET 0.000168 2310.654297 -282.823242
							}
						}
					}
				}
				JOINT mixamorig:RightShoulder
				{
					OFFSET -4.569970 11.014908 -2.160885
					CHANNELS 6 Xposition Yposition Zposition Xrotation Yrotation Zrotation
					JOINT mixamorig:RightArm
					{
						OFFSET -10.592851 -0.524811 -2.232101
						CHANNELS 6 Xposition Yposition Zposition Xrotation Yrotation Zrotation
						JOINT mixamorig:RightForeArm
						{
							OFFSET -27.841511 0.000031 -0.000004
							CHANNELS 6 Xposition Yposition Zposition Xrotation Yrotation Zrotation
							JOINT mixamorig:RightHand
							{
								OFFSET -28.328831 -0.000015 0.000015
								CHANNELS 6 Xposition Yposition Zposition Xrotation Yrotation Zrotation
								JOINT mixamorig:RightHandThumb1
								{
									OFFSET -2.464806 -1.573990 2.681852
									CHANNELS 6 Xposition Yposition Zposition Xrotation Yrotation Zrotation
									JOINT mixamorig:RightHandThumb2
									{
										OFFSET -3.215179 -1.872803 1.924282
										CHANNELS 6 Xposition Yposition Zposition Xrotation Yrotation Zrotation
										JOINT mixamorig:RightHandThumb3
										{
											OFFSET -2.654831 -1.527969 1.512609
											CHANNELS 6 Xposition Yposition Zposition Xrotation Yrotation Zrotation
											JOINT mixamorig:RightHandThumb4
											{
												OFFSET -2.018814 -1.152008 1.108052
												CHANNELS 6 Xposition Yposition Zposition Xrotation Yrotation Zrotation
												End Site
												{
													OFFSET -188.809540 -114.533607 132.431396
												}
											}
										}
									}
								}
								JOINT mixamorig:RightHandIndex1
								{
									OFFSET -9.108284 -0.517868 2.259835
									CHANNELS 6 Xposition Yposition Zposition Xrotation Yrotation Zrotation
									JOINT mixamorig:RightHandIndex2
									{
										OFFSET -3.699989 0.000000 0.001215
										CHANNELS 6 Xposition Yposition Zposition Xrotation Yrotation Zrotation
										JOINT mixamorig:RightHandIndex3
										{
											OFFSET -2.850006 0.000031 -0.000522
											CHANNELS 6 Xposition Yposition Zposition Xrotation Yrotation Zrotation
											JOINT mixamorig:RightHandIndex4
											{
												OFFSET -2.772186 -0.000015 -0.000020
												CHANNELS 6 Xposition Yposition Zposition Xrotation Yrotation Zrotation
												End Site
												{
													OFFSET -277.218445 0.000000 -0.050231
												}
											}
										}
									}
								}
								JOINT mixamorig:RightHandMiddle1
								{
									OFFSET -9.532516 -0.000031 -0.000023
									CHANNELS 6 Xposition Yposition Zposition Xrotation Yrotation Zrotation
									JOINT mixamorig:RightHandMiddle2
									{
										OFFSET -3.700005 -0.000015 0.003713
										CHANNELS 6 Xposition Yposition Zposition Xrotation Yrotation Zrotation
										JOINT mixamorig:RightHandMiddle3
										{
											OFFSET -2.949974 0.000015 -0.002054
											CHANNELS 6 Xposition Yposition Zposition Xrotation Yrotation Zrotation
											JOINT mixamorig:RightHandMiddle4
											{
												OFFSET -2.946640 0.000000 -0.000156
												CHANNELS 6 Xposition Yposition Zposition Xrotation Yrotation Zrotation
												End Site
												{
													OFFSET -294.664337 0.000000 -0.113670
												}
											}
										}
									}
								}
								JOINT mixamorig:RightHandRing1
								{
									OFFSET -9.103600 -0.043076 -1.865134
									CHANNELS 6 Xposition Yposition Zposition Xrotation Yrotation Zrotation
									JOINT mixamorig:RightHandRing2
									{
										OFFSET -3.379288 0.000000 -0.001055
										CHANNELS 6 Xposition Yposition Zposition Xrotation Yrotation Zrotation
										JOINT mixamorig:RightHandRing3
										{
											OFFSET -2.889687 -0.000015 0.000379
											CHANNELS 6 Xposition Yposition Zposition Xrotation Yrotation Zrotation
											JOINT mixamorig:RightHandRing4
											{
												OFFSET -2.638809 -0.000015 0.000941
												CHANNELS 6 Xposition Yposition Zposition Xrotation Yrotation Zrotation
												End Site
												{
													OFFSET -263.880371 0.000000 0.516020
												}
											}
										}
									}
								}
								JOINT mixamorig:RightHandPinky1
								{
									OFFSET -8.076683 -0.486710 -3.806280
									CHANNELS 6 Xposition Yposition Zposition Xrotation Yrotation Zrotation
									JOINT mixamorig:RightHandPinky2
									{
										OFFSET -3.600014 -0.000015 -0.003747
										CHANNELS 6 Xposition Yposition Zposition Xrotation Yrotation Zrotation
										JOINT mixamorig:RightHandPinky3
										{
											OFFSET -2.099983 0.000000 -0.005739
											CHANNELS 6 Xposition Yposition Zposition Xrotation Yrotation Zrotation
											JOINT mixamorig:RightHandPinky4
											{
												OFFSET -2.115768 -0.000031 -0.003680
												CHANNELS 6 Xposition Yposition Zposition Xrotation Yrotation Zrotation
												End Site
												{
													OFFSET -211.577087 0.000000 -0.350686
												}
											}
										}
									}
								}
							}
						}
					}
				}
				JOINT mixamorig:LeftShoulder
				{
					OFFSET 4.570447 11.014725 -2.160855
					CHANNELS 6 Xposition Yposition Zposition Xrotation Yrotation Zrotation
					JOINT mixamorig:LeftArm
					{
						OFFSET 10.592371 -0.524597 -2.232119
						CHANNELS 6 Xposition Yposition Zposition Xrotation Yrotation Zrotation
						JOINT mixamorig:LeftForeArm
						{
							OFFSET 27.841532 -0.000031 0.000026
							CHANNELS 6 Xposition Yposition Zposition Xrotation Yrotation Zrotation
							JOINT mixamorig:LeftHand
							{
								OFFSET 28.328846 -0.000061 0.000022
								CHANNELS 6 Xposition Yposition Zposition Xrotation Yrotation Zrotation
								JOINT mixamorig:LeftHandThumb1
								{
									OFFSET 2.466141 -1.576172 2.681732
									CHANNELS 6 Xposition Yposition Zposition Xrotation Yrotation Zrotation
									JOINT mixamorig:LeftHandThumb2
									{
										OFFSET 3.217812 -1.872070 1.916482
										CHANNELS 6 Xposition Yposition Zposition Xrotation Yrotation Zrotation
										JOINT mixamorig:LeftHandThumb3
										{
											OFFSET 2.656029 -1.528778 1.514513
											CHANNELS 6 Xposition Yposition Zposition Xrotation Yrotation Zrotation
											JOINT mixamorig:LeftHandThumb4
											{
												OFFSET 2.020889 -1.154053 1.115139
												CHANNELS 6 Xposition Yposition Zposition Xrotation Yrotation Zrotation
												End Site
												{
													OFFSET 190.885437 -115.081749 130.048782
												}
											}
										}
									}
								}
								JOINT mixamorig:LeftHandIndex1
								{
									OFFSET 9.109314 -0.518021 2.259871
									CHANNELS 6 Xposition Yposition Zposition Xrotation Yrotation Zrotation
									JOINT mixamorig:LeftHandIndex2
									{
										OFFSET 3.699989 0.000000 -0.000322
										CHANNELS 6 Xposition Yposition Zposition Xrotation Yrotation Zrotation
										JOINT mixamorig:LeftHandIndex3
										{
											OFFSET 2.850006 0.000000 0.000352
											CHANNELS 6 Xposition Yposition Zposition Xrotation Yrotation Zrotation
											JOINT mixamorig:LeftHandIndex4
											{
												OFFSET 2.774864 -0.000031 -0.000027
												CHANNELS 6 Xposition Yposition Zposition Xrotation Yrotation Zrotation
												End Site
												{
													OFFSET 277.486267 0.000000 -0.009857
												}
											}
										}
									}
								}
								JOINT mixamorig:LeftHandMiddle1
								{
									OFFSET 9.533394 0.000061 0.000044
									CHANNELS 6 Xposition Yposition Zposition Xrotation Yrotation Zrotation
									JOINT mixamorig:LeftHandMiddle2
									{
										OFFSET 3.699989 -0.000015 -0.000231
										CHANNELS 6 Xposition Yposition Zposition Xrotation Yrotation Zrotation
										JOINT mixamorig:LeftHandMiddle3
										{
											OFFSET 2.949997 -0.000015 -0.000059
											CHANNELS 6 Xposition Yposition Zposition Xrotation Yrotation Zrotation
											JOINT mixamorig:LeftHandMiddle4
											{
												OFFSET 2.952896 0.000031 0.000063
												CHANNELS 6 Xposition Yposition Zposition Xrotation Yrotation Zrotation
												End Site
												{
													OFFSET 295.289337 0.000000 0.022810
												}
											}
										}
									}
								}
								JOINT mixamorig:LeftHandRing1
								{
									OFFSET 9.104523 -0.042999 -1.865074
									CHANNELS 6 Xposition Yposition Zposition Xrotation Yrotation Zrotation
									JOINT mixamorig:LeftHandRing2
									{
										OFFSET 3.150009 -0.000031 0.000043
										CHANNELS 6 Xposition Yposition Zposition Xrotation Yrotation Zrotation
										JOINT mixamorig:LeftHandRing3
										{
											OFFSET 2.949982 -0.000015 0.000040
											CHANNELS 6 Xposition Yposition Zposition Xrotation Yrotation Zrotation
											JOINT mixamorig:LeftHandRing4
											{
												OFFSET 2.644348 0.000000 0.000057
												CHANNELS 6 Xposition Yposition Zposition Xrotation Yrotation Zrotation
												End Site
												{
													OFFSET 264.434631 0.000000 0.012105
												}
											}
										}
									}
								}
								JOINT mixamorig:LeftHandPinky1
								{
									OFFSET 8.077789 -0.486847 -3.806259
									CHANNELS 6 Xposition Yposition Zposition Xrotation Yrotation Zrotation
									JOINT mixamorig:LeftHandPinky2
									{
										OFFSET 3.599953 0.000031 0.014727
										CHANNELS 6 Xposition Yposition Zposition Xrotation Yrotation Zrotation
										JOINT mixamorig:LeftHandPinky3
										{
											OFFSET 2.100021 0.000015 0.007705
											CHANNELS 6 Xposition Yposition Zposition Xrotation Yrotation Zrotation
											JOINT mixamorig:LeftHandPinky4
											{
												OFFSET 2.125504 0.000031 0.007517
												CHANNELS 6 Xposition Yposition Zposition Xrotation Yrotation Zrotation
												End Site
												{
													OFFSET 212.550781 0.000000 0.625752
												}
											}
										}
									}
								}
							}
						}
					}
				}
			}
		}
	}
	JOINT mixamorig:RightUpLeg
	{
		OFFSET -8.207787 -6.751648 -1.599560
		CHANNELS 6 Xposition Yposition Zposition Xrotation Yrotation Zrotation
		JOINT mixamorig:RightLeg
		{
			OFFSET -0.000002 -44.370117 0.345942
			CHANNELS 6 Xposition Yposition Zposition Xrotation Yrotation Zrotation
			JOINT mixamorig:RightFoot
			{
				OFFSET 0.000003 -44.423679 -3.043532
				CHANNELS 6 Xposition Yposition Zposition Xrotation Yrotation Zrotation
				JOINT mixamorig:RightToeBase
				{
					OFFSET -0.000002 -8.728671 10.710558
					CHANNELS 6 Xposition Yposition Zposition Xrotation Yrotation Zrotation
					JOINT mixamorig:RightToe_End
					{
						OFFSET -0.000001 -0.000679 9.278119
						CHANNELS 6 Xposition Yposition Zposition Xrotation Yrotation Zrotation
						End Site
						{
							OFFSET 0.000000 -0.067690 927.812134
						}
					}
				}
			}
		}
	}
	JOINT mixamorig:LeftUpLeg
	{
		OFFSET 8.207793 -6.751686 -1.599556
		CHANNELS 6 Xposition Yposition Zposition Xrotation Yrotation Zrotation
		JOINT mixamorig:LeftLeg
		{
			OFFSET -0.000004 -44.370014 0.346954
			CHANNELS 6 Xposition Yposition Zposition Xrotation Yrotation Zrotation
			JOINT mixamorig:LeftFoot
			{
				OFFSET -0.000001 -44.423672 -3.044401
				CHANNELS 6 Xposition Yposition Zposition Xrotation Yrotation Zrotation
				JOINT mixamorig:LeftToeBase
				{
					OFFSET -0.000002 -8.728669 10.710558
					CHANNELS 6 Xposition Yposition Zposition Xrotation Yrotation Zrotation
					JOINT mixamorig:LeftToe_End
					{
						OFFSET -0.000003 -0.000679 9.278133
						CHANNELS 6 Xposition Yposition Zposition Xrotation Yrotation Zrotation
						End Site
						{
							OFFSET 0.000000 -0.068021 927.813477
						}
					}
				}
			}
		}
	}
}
MOTION
Frames: 3
Frame Time: 0.033333
0.000006 104.270477 1.554256 0.000010 0.000003 -0.000113 -0.000005 10.181587 0.131522 0.000001 -0.000003 0.000084 -0.000000 9.893967 -1.470711 0.000001 0.000000 -0.000000 -0.000000 9.220802 -1.370642 0.000000 -0.000000 -0.000000 0.000001 16.740433 -2.049030 0.000000 -0.000000 -0.000000 0.000000 9.617859 1.685014 0.000000 0.000000 0.000000 0.000002 22.037384 7.501101 0.000000 -0.000000 0.000000 -4.569968 11.014880 -2.160881 0.000008 0.000001 -0.000038 -10.592875 -0.524763 -2.231895 74.502419 29.473052 -22.621955 -27.841536 0.000000 0.000536 -60.016592 106.669106 75.609272 -28.328827 0.000006 0.000027 -0.000323 -0.000045 0.000006 -2.464438 -1.573940 2.682399 -25.964194 -153.798020 34.807119 -3.215273 -1.872577 1.924642 157.200943 32.435554 6.531582 -2.654956 -1.527896 1.513093 149.523100 25.813621 -42.235356 -2.018837 -1.152010 1.108069 -0.000006 -0.000003 0.000000 -9.108390 -0.517564 2.260144 102.083317 17.731577 -21.895816 -3.700056 0.000320 0.001527 98.000217 13.869122 -15.902448 -2.850088 0.000363 -0.000255 96.529076 11.265437 -12.616861 -2.772156 0.000000 -0.000021 0.000001 0.000000 -0.000000 -9.532578 0.000268 0.000215 88.485039 14.686216 -14.443895 -3.700061 0.000356 0.003953 90.457980 10.060825 -10.047992 -2.950055 0.000337 -0.001851 89.784121 10.361457 -10.315726 -2.946648 0.000003 -0.000153 0.000003 -0.000000 0.000000 -9.103691 -0.042762 -1.864900 86.336528 16.775421 -15.707282 -3.379310 0.000309 -0.000831 90.073489 8.632766 -8.660947 -2.889752 0.000350 0.000627 92.693870 6.117737 -6.458924 -2.638804 -0.000018 0.000939 0.000000 0.000000 0.000001 -8.076730 -0.486384 -3.806060 77.102030 15.919250 -12.595494 -3.600019 0.000275 -0.003567 81.617284 7.545275 -6.213586 -2.100022 0.000314 -0.005530 84.818990 5.198185 -4.549457 -2.115775 -0.000056 -0.003679 -0.000001 -0.000000 -0.000003 4.570446 11.014691 -2.160851 -0.000018 0.000010 -0.000021 10.592401 -0.524475 -2.232353 73.753148 -12.949211 9.732465 27.841808 0.000056 -0.000193 87.946451 -71.935791 69.994365 28.328823 -0.000028 0.000022 0.000024 -0.000089 0.000000 2.466268 -1.576020 2.681828 -161.949932 8.097512 64.876285 3.217785 -1.871698 1.916399 167.976796 -33.161228 -3.131485 2.656111 -1.528665 1.514508 143.729419 -25.652143 60.830170 2.020896 -1.154064 1.115142 -0.000001 0.000003 -0.000003 9.109392 -0.517874 2.259741 82.742114 -21.483609 18.959150 3.700053 0.000116 -0.000443 80.622986 -20.667099 17.602922 2.850062 0.000151 0.000208 77.697855 -16.443465 13.274853 2.774879 -0.000029 -0.000021 0.000000 -0.000000 0.000000 9.533470 0.000172 -0.000082 77.993739 -20.512738 16.662561 3.700055 0.000160 -0.000371 84.168011 -17.584105 15.899917 2.950074 0.000142 -0.000184 83.881307 -19.321953 17.395816 2.952872 -0.000032 0.000065 -0.000000 -0.000001 0.000001 9.104606 -0.042888 -1.865218 75.085280 -19.297854 14.889640 3.150057 0.000176 -0.000082 83.767359 -14.325451 12.860899 2.950026 0.000158 -0.000066 86.206242 -14.662507 13.733415 2.644321 0.000018 0.000055 0.000000 -0.000001 0.000002 8.077847 -0.486752 -3.806405 68.260535 -18.686388 13.145250 3.600008 0.000142 0.014562 71.431341 -15.265966 11.388178 2.100024 0.000161 0.007548 75.475257 -13.933173 11.190036 2.125498 -0.000018 0.007513 0.000002 0.000000 0.000002 -8.207786 -6.751667 -1.599560 -0.077001 -0.000003 0.000080 -0.000002 -44.370110 0.345938 0.153719 -0.000000 -0.000000 0.000000 -44.423679 -3.043532 -0.076700 0.000000 -0.000002 -0.000006 -8.728667 10.710559 -0.000009 -0.000000 -0.000000 -0.000001 -0.000679 9.278123 0.000000 -0.000000 -0.000000 8.207792 -6.751710 -1.599556 -0.074518 -0.000003 0.000081 -0.000002 -44.370014 0.346960 0.148822 0.000002 0.000000 -0.000001 -44.423664 -3.044403 -0.074314 0.000000 -0.000002 -0.000004 -8.728671 10.710558 0.000007 -0.000000 -0.000000 0.000000 -0.000680 9.278137 -0.000000 0.000000 -0.000001 
0.000006 104.270477 1.554256 0.000010 0.000003 -0.000113 -0.000005 10.181587 0.131522 0.000001 -0.000003 0.000084 -0.000000 9.893967 -1.470711 0.000001 0.000000 -0.000000 -0.000000 9.220802 -1.370642 0.000000 -0.000000 -0.000000 0.000001 16.740433 -2.049030 0.000000 -0.000000 -0.000000 0.000000 9.617859 1.685014 0.000000 0.000000 0.000000 0.000002 22.037384 7.501101 0.000000 -0.000000 0.000000 -4.569968 11.014880 -2.160881 0.000008 0.000001 -0.000038 -10.592865 -0.524785 -2.231886 74.630451 33.931249 -26.181056 -27.841534 -0.000003 0.000541 -57.046402 105.586358 71.192503 -28.328817 -0.000005 0.000030 -0.000321 -0.000043 0.000009 -2.464418 -1.573840 2.682346 -41.846879 -160.276236 4.448045 -3.215290 -1.872572 1.924641 153.427974 31.757897 5.777692 -2.654957 -1.527889 1.513061 145.973724 27.521405 -32.553979 -2.018827 -1.152004 1.108055 -0.000002 0.000003 0.000005 -9.108372 -0.517554 2.260115 99.717347 14.695745 -17.442015 -3.700055 0.000338 0.001526 99.307474 10.533589 -12.360310 -2.850079 0.000378 -0.000251 98.392761 8.642871 -10.004068 -2.772171 -0.000014 -0.000018 0.000001 0.000002 0.000000 -9.532578 0.000263 0.000217 88.929903 15.419377 -15.276374 -3.700062 0.000331 0.003943 90.405777 10.945950 -10.929207 -2.950054 0.000333 -0.001819 91.896329 10.981453 -11.341399 -2.946617 0.000002 -0.000157 -0.000001 0.000001 0.000000 -9.103703 -0.042760 -1.864900 85.774424 18.542772 -17.201681 -3.379309 0.000323 -0.000826 89.382451 10.548238 -10.453141 -2.889753 0.000347 0.000653 95.905568 7.160804 -7.987964 -2.638828 0.000001 0.000941 -0.000005 0.000000 -0.000002 -8.076745 -0.486393 -3.806071 77.314627 18.394393 -14.635987 -3.600053 0.000262 -0.003549 81.794480 10.309270 -8.619332 -2.099986 0.000307 -0.005494 85.975020 6.692271 -6.031196 -2.115767 -0.000042 -0.003679 -0.000002 0.000001 -0.000004 4.570446 11.014691 -2.160851 -0.000018 0.000010 -0.000021 10.592384 -0.524488 -2.232332 73.230235 -7.123552 5.296482 27.841816 0.000038 -0.000185 89.382478 -73.793159 73.201200 28.328848 -0.000029 0.000021 0.000019 -0.000089 -0.000000 2.466233 -1.575851 2.681785 -156.714183 -15.757474 32.071123 3.217857 -1.871926 1.916451 170.604629 -11.554505 63.700892 2.656101 -1.528723 1.514529 143.076221 -25.034160 71.879135 2.020895 -1.154055 1.115142 0.000003 0.000003 0.000004 9.109395 -0.517893 2.259745 82.557412 -25.691531 22.628162 3.700037 0.000147 -0.000469 79.306802 -17.221287 14.322154 2.850055 0.000167 0.000223 78.829221 -12.416829 10.216483 2.774874 -0.000015 -0.000027 0.000000 -0.000000 -0.000001 9.533480 0.000164 -0.000089 78.901293 -24.269170 20.059291 3.700062 0.000159 -0.000388 83.036372 -14.444038 12.799372 2.950061 0.000162 -0.000204 83.904066 -12.344285 11.107024 2.952873 -0.000031 0.000060 -0.000001 -0.000001 0.000000 9.104605 -0.042896 -1.865216 77.894831 -23.053096 18.721895 3.150063 0.000169 -0.000079 82.509949 -15.419425 13.545313 2.950005 0.000151 -0.000089 83.016052 -11.154088 9.879396 2.644340 0.000029 0.000055 0.000001 -0.000002 0.000000 8.077850 -0.486757 -3.806385 69.764754 -22.336320 16.118565 3.600026 0.000134 0.014575 69.427787 -18.475459 13.239179 2.100036 0.000142 0.007558 72.567707 -13.256662 10.116143 2.125513 -0.000000 0.007517 -0.000001 -0.000003 -0.000000 -8.207786 -6.751667 -1.599560 -0.077001 -0.000003 0.000080 -0.000002 -44.370110 0.345938 0.153719 -0.000000 -0.000000 0.000000 -44.423679 -3.043532 -0.076700 0.000000 -0.000002 -0.000006 -8.728667 10.710559 -0.000009 -0.000000 -0.000000 -0.000001 -0.000679 9.278123 0.000000 -0.000000 -0.000000 8.207792 -6.751710 -1.599556 -0.074518 -0.000003 0.000081 -0.000002 -44.370014 0.346960 0.148822 0.000002 0.000000 -0.000001 -44.423664 -3.044403 -0.074314 0.000000 -0.000002 -0.000004 -8.728671 10.710558 0.000007 -0.000000 -0.000000 0.000000 -0.000680 9.278137 -0.000000 0.000000 -0.000001 
0.000006 104.270477 1.554256 0.000010 0.000003 -0.000113 -0.000005 10.181587 0.131522 0.000001 -0.000003 0.000084 -0.000000 9.893967 -1.470711 0.000001 0.000000 -0.000000 -0.000000 9.220802 -1.370642 0.000000 -0.000000 -0.000000 0.000001 16.740433 -2.049030 0.000000 -0.000000 -0.000000 0.000000 9.617859 1.685014 0.000000 0.000000 0.000000 0.000002 22.037384 7.501101 0.000000 -0.000000 0.000000 -4.569968 11.014880 -2.160881 0.000008 0.000001 -0.000038 -10.592867 -0.524796 -2.231864 74.077766 37.349909 -28.617227 -27.841528 0.000010 0.000544 -54.776833 103.465379 66.593054 -28.328806 0.000020 0.000030 -0.000321 -0.000043 0.000007 -2.464407 -1.573804 2.682358 -43.477532 -162.355905 1.095326 -3.215297 -1.872603 1.924666 154.230808 30.280728 -4.183979 -2.654962 -1.527869 1.513070 143.543665 27.802198 -34.195311 -2.018850 -1.151996 1.108057 -0.000004 0.000003 0.000005 -9.108358 -0.517544 2.260126 99.521915 14.737211 -17.431392 -3.700064 0.000337 0.001518 98.672171 9.982666 -11.584063 -2.850066 0.000382 -0.000271 97.608744 7.700772 -8.792830 -2.772180 -0.000016 -0.000019 -0.000000 0.000001 0.000000 -9.532587 0.000274 0.000214 88.859252 14.924319 -14.771442 -3.700062 0.000320 0.003945 90.457557 10.019280 -10.006096 -2.950058 0.000331 -0.001825 91.455769 10.027018 -10.276568 -2.946623 0.000001 -0.000161 -0.000001 -0.000000 -0.000001 -9.103695 -0.042750 -1.864897 85.935719 17.359628 -16.144414 -3.379335 0.000315 -0.000820 89.667338 10.126763 -10.085789 -2.889737 0.000350 0.000640 95.852887 6.700618 -7.470951 -2.638818 -0.000013 0.000941 -0.000001 0.000000 -0.000002 -8.076735 -0.486395 -3.806074 78.135766 16.897202 -13.626625 -3.600052 0.000267 -0.003547 82.001175 9.458460 -7.913187 -2.100021 0.000316 -0.005498 86.457006 6.093196 -5.520590 -2.115777 -0.000053 -0.003676 0.000004 -0.000003 -0.000005 4.570446 11.014691 -2.160851 -0.000018 0.000010 -0.000021 10.592398 -0.524478 -2.232369 72.956550 -12.424213 9.202576 27.841806 0.000043 -0.000212 89.917309 -75.397925 75.318053 28.328825 -0.000028 0.000028 0.000023 -0.000089 -0.000000 2.466244 -1.575863 2.681791 -156.948226 -15.072173 33.087257 3.217880 -1.871912 1.916473 170.006701 -10.687486 66.560207 2.656089 -1.528719 1.514530 141.767065 -25.638703 72.962840 2.020894 -1.154074 1.115144 0.000003 0.000002 0.000004 9.109396 -0.517894 2.259752 82.584896 -26.479866 23.339311 3.700058 0.000138 -0.000456 79.354367 -18.015727 14.998126 2.850060 0.000162 0.000190 78.788390 -12.991255 10.682725 2.774874 -0.000030 -0.000032 -0.000000 -0.000003 -0.000001 9.533482 0.000167 -0.000073 79.167705 -24.653617 20.474993 3.700032 0.000152 -0.000387 83.232576 -14.855530 13.210014 2.950037 0.000175 -0.000212 83.908048 -12.567493 11.308911 2.952865 -0.000046 0.000066 -0.000000 -0.000000 0.000000 9.104602 -0.042893 -1.865220 78.511809 -23.283801 19.116361 3.150044 0.000177 -0.000091 82.755508 -15.483076 13.659731 2.949994 0.000162 -0.000101 82.541894 -11.044485 9.701333 2.644327 0.000047 0.000058 0.000000 -0.000004 -0.000000 8.077861 -0.486752 -3.806380 70.528062 -22.566516 16.511677 3.600025 0.000127 0.014582 70.036698 -18.464696 13.380586 2.100037 0.000140 0.007558 72.499589 -13.211976 10.070477 2.125489 -0.000015 0.007522 0.000001 0.000003 -0.000000 -8.207786 -6.751667 -1.599560 -0.077001 -0.000003 0.000080 -0.000002 -44.370110 0.345938 0.153719 -0.000000 -0.000000 0.000000 -44.423679 -3.043532 -0.076700 0.000000 -0.000002 -0.000006 -8.728667 10.710559 -0.000009 -0.000000 -0.000000 -0.000001 -0.000679 9.278123 0.000000 -0.000000 -0.000000 8.207792 -6.751710 -1.599556 -0.074518 -0.000003 0.000081 -0.000002 -44.370014 0.346960 0.148822 0.000002 0.000000 -0.000001 -44.423664 -3.044403 -0.074314 0.000000 -0.000002 -0.000004 -8.728671 10.710558 0.000007 -0.000000 -0.000000 0.000000 -0.000680 9.278137 -0.000000 0.000000 -0.000001 
